<mxfile host="app.diagrams.net" modified="2023-04-11T17:01:14.455Z" agent="Mozilla/5.0 (X11; Linux x86_64) AppleWebKit/537.36 (KHTML, like Gecko) Chrome/112.0.0.0 Safari/537.36" etag="cr5n1dxPsWVs8r3VPx58" version="21.1.5" type="device">
  <diagram name="Страница 1" id="YqkLxYyU9oGeG_8LAE8O">
    <mxGraphModel dx="1246" dy="697" grid="1" gridSize="10" guides="1" tooltips="1" connect="1" arrows="1" fold="1" page="1" pageScale="1" pageWidth="827" pageHeight="1169" math="0" shadow="0">
      <root>
        <mxCell id="0" />
        <mxCell id="1" parent="0" />
        <mxCell id="O4nQT0LoY3DEUEd8zhfF-1" value="ApplicantService" style="swimlane;fontStyle=1;align=center;verticalAlign=top;childLayout=stackLayout;horizontal=1;startSize=26;horizontalStack=0;resizeParent=1;resizeParentMax=0;resizeLast=0;collapsible=1;marginBottom=0;whiteSpace=wrap;html=1;" vertex="1" parent="1">
          <mxGeometry x="120" y="250" width="320" height="164" as="geometry" />
        </mxCell>
        <mxCell id="O4nQT0LoY3DEUEd8zhfF-2" value="- applicantModel&lt;span style=&quot;background-color: initial;&quot;&gt;: ApplicantModel&lt;/span&gt;" style="text;strokeColor=none;fillColor=none;align=left;verticalAlign=top;spacingLeft=4;spacingRight=4;overflow=hidden;rotatable=0;points=[[0,0.5],[1,0.5]];portConstraint=eastwest;whiteSpace=wrap;html=1;" vertex="1" parent="O4nQT0LoY3DEUEd8zhfF-1">
          <mxGeometry y="26" width="320" height="26" as="geometry" />
        </mxCell>
        <mxCell id="O4nQT0LoY3DEUEd8zhfF-8" value="- facultyModel&lt;span style=&quot;background-color: initial;&quot;&gt;: FacultyModel&lt;/span&gt;" style="text;strokeColor=none;fillColor=none;align=left;verticalAlign=top;spacingLeft=4;spacingRight=4;overflow=hidden;rotatable=0;points=[[0,0.5],[1,0.5]];portConstraint=eastwest;whiteSpace=wrap;html=1;" vertex="1" parent="O4nQT0LoY3DEUEd8zhfF-1">
          <mxGeometry y="52" width="320" height="26" as="geometry" />
        </mxCell>
        <mxCell id="O4nQT0LoY3DEUEd8zhfF-3" value="" style="line;strokeWidth=1;fillColor=none;align=left;verticalAlign=middle;spacingTop=-1;spacingLeft=3;spacingRight=3;rotatable=0;labelPosition=right;points=[];portConstraint=eastwest;strokeColor=inherit;" vertex="1" parent="O4nQT0LoY3DEUEd8zhfF-1">
          <mxGeometry y="78" width="320" height="8" as="geometry" />
        </mxCell>
        <mxCell id="O4nQT0LoY3DEUEd8zhfF-4" value="+&amp;nbsp;getFaculties&lt;span style=&quot;background-color: initial;&quot;&gt;(id: string):&amp;nbsp;&lt;/span&gt;AvailableFaculty[]" style="text;strokeColor=none;fillColor=none;align=left;verticalAlign=top;spacingLeft=4;spacingRight=4;overflow=hidden;rotatable=0;points=[[0,0.5],[1,0.5]];portConstraint=eastwest;whiteSpace=wrap;html=1;" vertex="1" parent="O4nQT0LoY3DEUEd8zhfF-1">
          <mxGeometry y="86" width="320" height="26" as="geometry" />
        </mxCell>
        <mxCell id="O4nQT0LoY3DEUEd8zhfF-5" value="- getAvailableFaculties&lt;span style=&quot;background-color: initial;&quot;&gt;(id: string): AvailableFaculty[]&lt;/span&gt;" style="text;strokeColor=none;fillColor=none;align=left;verticalAlign=top;spacingLeft=4;spacingRight=4;overflow=hidden;rotatable=0;points=[[0,0.5],[1,0.5]];portConstraint=eastwest;whiteSpace=wrap;html=1;" vertex="1" parent="O4nQT0LoY3DEUEd8zhfF-1">
          <mxGeometry y="112" width="320" height="26" as="geometry" />
        </mxCell>
        <mxCell id="O4nQT0LoY3DEUEd8zhfF-6" value="- getSuccessChance&lt;span style=&quot;background-color: initial;&quot;&gt;(id: string): number&lt;/span&gt;" style="text;strokeColor=none;fillColor=none;align=left;verticalAlign=top;spacingLeft=4;spacingRight=4;overflow=hidden;rotatable=0;points=[[0,0.5],[1,0.5]];portConstraint=eastwest;whiteSpace=wrap;html=1;" vertex="1" parent="O4nQT0LoY3DEUEd8zhfF-1">
          <mxGeometry y="138" width="320" height="26" as="geometry" />
        </mxCell>
        <mxCell id="O4nQT0LoY3DEUEd8zhfF-9" value="AvailableFaculty" style="swimlane;fontStyle=0;childLayout=stackLayout;horizontal=1;startSize=26;fillColor=none;horizontalStack=0;resizeParent=1;resizeParentMax=0;resizeLast=0;collapsible=1;marginBottom=0;whiteSpace=wrap;html=1;" vertex="1" parent="1">
          <mxGeometry x="540" y="293" width="170" height="78" as="geometry" />
        </mxCell>
        <mxCell id="O4nQT0LoY3DEUEd8zhfF-10" value="+ success_chance: number" style="text;strokeColor=none;fillColor=none;align=left;verticalAlign=top;spacingLeft=4;spacingRight=4;overflow=hidden;rotatable=0;points=[[0,0.5],[1,0.5]];portConstraint=eastwest;whiteSpace=wrap;html=1;" vertex="1" parent="O4nQT0LoY3DEUEd8zhfF-9">
          <mxGeometry y="26" width="170" height="26" as="geometry" />
        </mxCell>
        <mxCell id="O4nQT0LoY3DEUEd8zhfF-12" value="+ faculty: ObjectId" style="text;strokeColor=none;fillColor=none;align=left;verticalAlign=top;spacingLeft=4;spacingRight=4;overflow=hidden;rotatable=0;points=[[0,0.5],[1,0.5]];portConstraint=eastwest;whiteSpace=wrap;html=1;" vertex="1" parent="O4nQT0LoY3DEUEd8zhfF-9">
          <mxGeometry y="52" width="170" height="26" as="geometry" />
        </mxCell>
        <mxCell id="O4nQT0LoY3DEUEd8zhfF-13" value="Create" style="endArrow=open;endSize=12;dashed=1;html=1;rounded=0;edgeStyle=orthogonalEdgeStyle;curved=1;" edge="1" parent="1" source="O4nQT0LoY3DEUEd8zhfF-1" target="O4nQT0LoY3DEUEd8zhfF-9">
          <mxGeometry width="160" relative="1" as="geometry">
            <mxPoint x="260" y="410" as="sourcePoint" />
            <mxPoint x="420" y="410" as="targetPoint" />
          </mxGeometry>
        </mxCell>
      </root>
    </mxGraphModel>
  </diagram>
</mxfile>
